<svg width="646.49375px" height="122px" xmlns="http://www.w3.org/2000/svg" viewBox="-73.24687499999999 14 646.49375 122" style="background: rgba(0, 0, 0, 0);" preserveAspectRatio="xMidYMid"><defs><linearGradient id="editing-shiny-gradient" x1="0.04322727117869957" x2="0.9567727288213004" y1="0.2966316784620999" y2="0.7033683215379001" gradientUnits="objectBoundingBox"><stop offset="0.0" stop-color="#ffb200"></stop><stop offset="0.5" stop-color="#e10057"></stop><stop offset="1.0" stop-color="#5A1A80"></stop></linearGradient><linearGradient id="editing-shiny-gradient2" x1="0" x2="0" y1="0" y2="1"><stop offset="0.2" stop-color="#fff" stop-opacity="0.8"></stop><stop offset="0.8" stop-color="#fff" stop-opacity="0"></stop></linearGradient><filter id="editing-shiny2" x="-100%" y="-100%" width="300%" height="300%"><feMorphology operator="erode" radius="2"></feMorphology></filter><filter id="editing-shiny" x="-100%" y="-100%" width="300%" height="300%"><feFlood flood-color="#fff" result="flood"></feFlood><feConvolveMatrix in="SourceGraphic" result="conv" order="8,8" divisor="1" kernelMatrix="0 0 0 0 0 0 0 0 0 0 0 1 1 0 0 0 0 0 0 1 1 0 0 0 0 0 1 0 0 1 0 0 0 0 1 0 0 1 0 0 0 1 0 0 0 0 1 0 0 1 1 0 0 1 1 0 0 0 0 1 1 0 0 0 "></feConvolveMatrix><feOffset dx="0" dy="4" in="conv" result="offset"></feOffset><feComposite operator="in" in="flood" in2="offset" result="comp"></feComposite><feGaussianBlur in="offset" stdDeviation="3" result="shadow"></feGaussianBlur><feColorMatrix in="shadow" type="matrix" values="0.7 0 0 0 0  0 0.7 0 0 0  0 0 0.7 0 0  0 0 0 0.3 0" result="dark-shadow"></feColorMatrix><feOffset dx="0" dy="4" in="dark-shadow" result="offset-shadow"></feOffset><feOffset dx="0" dy="2" in="conv" result="offset-2"></feOffset><feComposite operator="out" in="offset" in2="offset-2" result="edge-diff"></feComposite><feGaussianBlur in="edge-diff" stdDeviation="1" result="edge-blur"></feGaussianBlur><feColorMatrix in="edge-blur" result="edge-shadow" type="matrix" values="0 0 0 0 0  0 0 0 0 0  0 0 0 0 0  0 0 0 0.5 0"></feColorMatrix><feComposite operator="in" in="edge-shadow" in2="offset" result="edge-shadow-in"></feComposite><feOffset dx="0" dy="1" in="edge-shadow-in" result="edge-shadow-final"></feOffset><feMerge result="out"><feMergeNode in="offset-shadow"></feMergeNode><feMergeNode in="comp"></feMergeNode><feMergeNode in="edge-shadow-final"></feMergeNode><feMergeNode in="SourceGraphic"></feMergeNode></feMerge></filter></defs><g filter="url(#editing-shiny)"><g transform="translate(20.814980298280716, 104.47000122070312)"><path d="M26.11-42.69L26.11-42.69L26.11-42.69Q41.79-42.69 41.79-31.62L41.79-31.62L41.79-31.62Q41.79-25.54 37.89-21.89L37.89-21.89L37.89-21.89Q34.05-18.24 27.33-18.24L27.33-18.24L27.33-18.24Q24.19-18.24 21.76-20.03L21.76-20.03L21.76-20.03Q20.61-20.80 19.84-21.82L19.84-21.82L19.84-21.82Q24.51-21.82 26.98-24.67L26.98-24.67L26.98-24.67Q29.44-27.52 29.44-33.09L29.44-33.09L29.44-33.09Q29.44-38.66 23.94-38.66L23.94-38.66L22.40-38.66L22.40-38.66Q22.02-38.66 21.70-38.59L21.70-38.59L14.34 0L0.45 0L8.32-41.92L8.32-41.92Q15.17-42.56 19.14-42.62L19.14-42.62L19.14-42.62Q23.10-42.69 26.11-42.69ZM62.14-17.98L62.14-17.98L62.14-17.98Q64.45-22.08 64.45-26.24L64.45-26.24L64.45-26.24Q64.45-28.99 62.46-28.99L62.46-28.99L62.46-28.99Q60.93-28.99 59.33-26.37L59.33-26.37L59.33-26.37Q57.66-23.74 57.15-20.35L57.15-20.35L53.82 0L40.58 1.28L47.10-32.64L57.66-33.92L56.51-27.46L56.51-27.46Q59.65-33.92 66.69-33.92L66.69-33.92L66.69-33.92Q70.40-33.92 72.42-32L72.42-32L72.42-32Q74.43-30.08 74.43-26.14L74.43-26.14L74.43-26.14Q74.43-22.21 71.84-19.71L71.84-19.71L71.84-19.71Q69.25-17.22 64.83-17.22L64.83-17.22L64.83-17.22Q62.91-17.22 62.14-17.98ZM101.38-10.82L101.38-10.82L101.38-10.82Q102.98-9.73 102.98-7.33L102.98-7.33L102.98-7.33Q102.98-4.93 101.76-3.39L101.76-3.39L101.76-3.39Q100.54-1.86 98.56-0.83L98.56-0.83L98.56-0.83Q94.46 1.28 90.05 1.28L90.05 1.28L90.05 1.28Q85.63 1.28 83.04 0.32L83.04 0.32L83.04 0.32Q80.45-0.64 78.72-2.43L78.72-2.43L78.72-2.43Q75.33-5.82 75.33-12.03L75.33-12.03L75.33-12.03Q75.33-21.70 80.58-27.58L80.58-27.58L80.58-27.58Q86.21-33.92 96-33.92L96-33.92L96-33.92Q102.08-33.92 105.09-31.36L105.09-31.36L105.09-31.36Q107.33-29.44 107.33-26.30L107.33-26.30L107.33-26.30Q107.33-15.04 87.87-15.04L87.87-15.04L87.87-15.04Q87.62-13.38 87.62-11.97L87.62-11.97L87.62-11.97Q87.62-9.02 88.93-7.90L88.93-7.90L88.93-7.90Q90.24-6.78 92.67-6.78L92.67-6.78L92.67-6.78Q95.10-6.78 97.70-7.90L97.70-7.90L97.70-7.90Q100.29-9.02 101.38-10.82ZM88.32-17.79L88.32-17.79L88.32-17.79Q92.86-17.79 95.49-20.61L95.49-20.61L95.49-20.61Q98.11-23.30 98.11-27.58L98.11-27.58L98.11-27.58Q98.11-29.06 97.57-29.86L97.57-29.86L97.57-29.86Q97.02-30.66 95.94-30.66L95.94-30.66L95.94-30.66Q94.85-30.66 93.92-30.24L93.92-30.24L93.92-30.24Q92.99-29.82 92.03-28.42L92.03-28.42L92.03-28.42Q89.66-25.22 88.32-17.79ZM110.53-6.40L110.53-6.40L110.53-6.40Q110.53-8.13 111.42-12.48L111.42-12.48L114.82-29.76L111.04-29.76L111.30-31.68L111.30-31.68Q118.98-33.98 126.40-39.62L126.40-39.62L129.47-39.62L127.94-32.64L132.93-32.64L132.35-29.76L127.42-29.76L124.16-12.48L124.16-12.48Q123.33-8.51 123.33-7.17L123.33-7.17L123.33-7.17Q123.33-4.10 126.02-3.46L126.02-3.46L126.02-3.46Q125.38-1.28 123.07 0L123.07 0L123.07 0Q120.77 1.28 117.50 1.28L117.50 1.28L117.50 1.28Q114.24 1.28 112.38-0.77L112.38-0.77L112.38-0.77Q110.53-2.82 110.53-6.40ZM133.63-6.40L133.63-6.40L133.63-6.40Q133.63-8.13 134.53-12.48L134.53-12.48L137.92-29.76L134.14-29.76L134.40-31.68L134.40-31.68Q142.08-33.98 149.50-39.62L149.50-39.62L152.58-39.62L151.04-32.64L156.03-32.64L155.46-29.76L150.53-29.76L147.26-12.48L147.26-12.48Q146.43-8.51 146.43-7.17L146.43-7.17L146.43-7.17Q146.43-4.10 149.12-3.46L149.12-3.46L149.12-3.46Q148.48-1.28 146.18 0L146.18 0L146.18 0Q143.87 1.28 140.61 1.28L140.61 1.28L140.61 1.28Q137.34 1.28 135.49-0.77L135.49-0.77L135.49-0.77Q133.63-2.82 133.63-6.40ZM176.06-7.23L176.06-7.23L176.06-7.23Q172.74-3.78 166.66-3.78L166.66-3.78L166.66-3.78Q159.04-3.78 157.44-9.34L157.44-9.34L157.44-9.34Q156.93-11.01 156.93-12.86L156.93-12.86L156.93-12.86Q156.93-14.72 157.31-16.64L157.31-16.64L160.32-32.64L173.31-33.92L169.79-15.30L169.79-15.30Q169.66-14.46 169.47-13.57L169.47-13.57L169.47-13.57Q169.28-12.67 169.28-11.74L169.28-11.74L169.28-11.74Q169.28-10.82 169.60-10.21L169.60-10.21L169.60-10.21Q169.92-9.60 170.37-9.22L170.37-9.22L170.37-9.22Q171.14-8.70 172.51-8.70L172.51-8.70L172.51-8.70Q173.89-8.70 175.07-10.37L175.07-10.37L175.07-10.37Q176.26-12.03 176.83-14.91L176.83-14.91L180.35-32.64L192.96-33.92L188.16-8.77L188.16-8.77Q185.79 3.52 180.93 8.38L180.93 8.38L180.93 8.38Q178.43 10.88 175.20 11.87L175.20 11.87L175.20 11.87Q171.97 12.86 167.81 12.86L167.81 12.86L167.81 12.86Q161.09 12.86 157.25 10.75L157.25 10.75L157.25 10.75Q153.41 8.64 153.41 5.12L153.41 5.12L153.41 5.12Q153.41 2.50 155.39 0.99L155.39 0.99L155.39 0.99Q157.38-0.51 160.45-0.51L160.45-0.51L160.45-0.51Q163.14-0.51 165.18 0.64L165.18 0.64L165.18 0.64Q166.40 1.34 166.98 2.24L166.98 2.24L166.98 2.24Q165.50 3.52 165.50 5.63L165.50 5.63L165.50 5.63Q165.50 8.45 168.06 8.45L168.06 8.45L168.06 8.45Q172.29 8.45 174.72-1.28L174.72-1.28L174.72-1.28Q175.42-4.16 176.06-7.23ZM233.47-42.69L233.47-42.69L233.47-42.69Q249.15-42.69 249.15-31.62L249.15-31.62L249.15-31.62Q249.15-25.54 245.25-21.89L245.25-21.89L245.25-21.89Q241.41-18.24 234.69-18.24L234.69-18.24L234.69-18.24Q231.55-18.24 229.12-20.03L229.12-20.03L229.12-20.03Q227.97-20.80 227.20-21.82L227.20-21.82L227.20-21.82Q231.87-21.82 234.34-24.67L234.34-24.67L234.34-24.67Q236.80-27.52 236.80-33.09L236.80-33.09L236.80-33.09Q236.80-38.66 231.30-38.66L231.30-38.66L229.76-38.66L229.76-38.66Q229.38-38.66 229.06-38.59L229.06-38.59L221.70 0L207.81 0L215.68-41.92L215.68-41.92Q222.53-42.56 226.50-42.62L226.50-42.62L226.50-42.62Q230.46-42.69 233.47-42.69ZM275.39-10.82L275.39-10.82L275.39-10.82Q276.99-9.73 276.99-7.33L276.99-7.33L276.99-7.33Q276.99-4.93 275.78-3.39L275.78-3.39L275.78-3.39Q274.56-1.86 272.58-0.83L272.58-0.83L272.58-0.83Q268.48 1.28 264.06 1.28L264.06 1.28L264.06 1.28Q259.65 1.28 257.06 0.32L257.06 0.32L257.06 0.32Q254.46-0.64 252.74-2.43L252.74-2.43L252.74-2.43Q249.34-5.82 249.34-12.03L249.34-12.03L249.34-12.03Q249.34-21.70 254.59-27.58L254.59-27.58L254.59-27.58Q260.22-33.92 270.02-33.92L270.02-33.92L270.02-33.92Q276.10-33.92 279.10-31.36L279.10-31.36L279.10-31.36Q281.34-29.44 281.34-26.30L281.34-26.30L281.34-26.30Q281.34-15.04 261.89-15.04L261.89-15.04L261.89-15.04Q261.63-13.38 261.63-11.97L261.63-11.97L261.63-11.97Q261.63-9.02 262.94-7.90L262.94-7.90L262.94-7.90Q264.26-6.78 266.69-6.78L266.69-6.78L266.69-6.78Q269.12-6.78 271.71-7.90L271.71-7.90L271.71-7.90Q274.30-9.02 275.39-10.82ZM262.34-17.79L262.34-17.79L262.34-17.79Q266.88-17.79 269.50-20.61L269.50-20.61L269.50-20.61Q272.13-23.30 272.13-27.58L272.13-27.58L272.13-27.58Q272.13-29.06 271.58-29.86L271.58-29.86L271.58-29.86Q271.04-30.66 269.95-30.66L269.95-30.66L269.95-30.66Q268.86-30.66 267.94-30.24L267.94-30.24L267.94-30.24Q267.01-29.82 266.05-28.42L266.05-28.42L266.05-28.42Q263.68-25.22 262.34-17.79ZM284.54-6.40L284.54-6.40L284.54-6.40Q284.54-8.13 285.44-12.48L285.44-12.48L288.83-29.76L285.06-29.76L285.31-31.68L285.31-31.68Q292.99-33.98 300.42-39.62L300.42-39.62L303.49-39.62L301.95-32.64L306.94-32.64L306.37-29.76L301.44-29.76L298.18-12.48L298.18-12.48Q297.34-8.51 297.34-7.17L297.34-7.17L297.34-7.17Q297.34-4.10 300.03-3.46L300.03-3.46L300.03-3.46Q299.39-1.28 297.09 0L297.09 0L297.09 0Q294.78 1.28 291.52 1.28L291.52 1.28L291.52 1.28Q288.26 1.28 286.40-0.77L286.40-0.77L286.40-0.77Q284.54-2.82 284.54-6.40ZM331.58-29.57L331.58-29.57L331.58-29.57Q332.54-31.49 332.54-33.28L332.54-33.28L332.54-33.28Q332.54-35.07 332.35-36.06L332.35-36.06L332.35-36.06Q332.16-37.06 331.71-37.82L331.71-37.82L331.71-37.82Q330.75-39.49 328.83-39.49L328.83-39.49L328.83-39.49Q326.46-39.49 324.54-37.76L324.54-37.76L324.54-37.76Q322.50-35.97 322.50-33.15L322.50-33.15L322.50-33.15Q322.50-31.36 323.74-29.98L323.74-29.98L323.74-29.98Q324.99-28.61 326.91-27.33L326.91-27.33L326.91-27.33Q328.83-26.05 331.01-24.77L331.01-24.77L331.01-24.77Q333.18-23.49 335.10-21.95L335.10-21.95L335.10-21.95Q339.52-18.43 339.52-13.70L339.52-13.70L339.52-13.70Q339.52-10.50 337.82-7.78L337.82-7.78L337.82-7.78Q336.13-5.06 333.31-3.07L333.31-3.07L333.31-3.07Q327.17 1.28 319.04 1.28L319.04 1.28L319.04 1.28Q312.45 1.28 309.06-0.86L309.06-0.86L309.06-0.86Q305.66-3.01 305.66-6.27L305.66-6.27L305.66-6.27Q305.66-12.10 310.21-13.57L310.21-13.57L310.21-13.57Q311.49-14.02 313.44-14.02L313.44-14.02L313.44-14.02Q315.39-14.02 317.63-13.18L317.63-13.18L317.63-13.18Q316.61-10.56 316.61-8.19L316.61-8.19L316.61-8.19Q316.61-3.07 320.26-3.07L320.26-3.07L320.26-3.07Q322.62-3.07 324.58-4.80L324.58-4.80L324.58-4.80Q326.53-6.53 326.53-8.48L326.53-8.48L326.53-8.48Q326.53-10.43 325.28-11.84L325.28-11.84L325.28-11.84Q324.03-13.25 322.18-14.37L322.18-14.37L322.18-14.37Q320.32-15.49 318.18-16.58L318.18-16.58L318.18-16.58Q316.03-17.66 314.18-19.20L314.18-19.20L314.18-19.20Q309.82-22.72 309.82-28.35L309.82-28.35L309.82-28.35Q309.82-32 311.62-34.85L311.62-34.85L311.62-34.85Q313.41-37.70 316.29-39.62L316.29-39.62L316.29-39.62Q322.05-43.52 329.12-43.52L329.12-43.52L329.12-43.52Q336.19-43.52 339.62-41.41L339.62-41.41L339.62-41.41Q343.04-39.30 343.04-35.71L343.04-35.71L343.04-35.71Q343.04-32.58 340.61-30.59L340.61-30.59L340.61-30.59Q338.50-28.93 335.94-28.93L335.94-28.93L335.94-28.93Q333.38-28.93 331.58-29.57ZM376.58-7.10L376.58-7.10L376.58-7.10Q376.58-4.29 379.46-3.46L379.46-3.46L379.46-3.46Q378.75-1.09 376.00 0.19L376.00 0.19L376.00 0.19Q373.70 1.28 371.17 1.28L371.17 1.28L371.17 1.28Q368.64 1.28 367.33 0.61L367.33 0.61L367.33 0.61Q366.02-0.06 365.31-1.15L365.31-1.15L365.31-1.15Q364.16-2.82 364.16-5.95L364.16-5.95L364.16-5.95Q364.16-7.81 365.18-12.93L365.18-12.93L366.08-17.79L366.08-17.79Q367.17-23.36 367.17-25.41L367.17-25.41L367.17-25.41Q367.17-28.99 365.18-28.99L365.18-28.99L365.18-28.99Q362.69-28.99 361.09-25.34L361.09-25.34L361.09-25.34Q360.45-23.94 360.00-21.82L360.00-21.82L355.65 0L342.78 1.28L351.81-44.80L364.67-46.08L364.16-43.52L364.16-43.52Q362.37-33.66 360.83-30.34L360.83-30.34L360.83-30.34Q364.42-33.92 371.01-33.92L371.01-33.92L371.01-33.92Q377.98-33.92 379.26-29.31L379.26-29.31L379.26-29.31Q379.71-27.84 379.71-26.56L379.71-26.56L379.71-26.56Q379.71-25.28 379.62-24.29L379.62-24.29L379.62-24.29Q379.52-23.30 379.20-21.50L379.20-21.50L378.37-16.90L376.90-9.66L376.90-9.66Q376.58-8.19 376.58-7.10ZM398.59 1.28L398.59 1.28L398.59 1.28Q384.51 1.28 384.51-11.97L384.51-11.97L384.51-11.97Q384.51-21.38 389.70-27.46L389.70-27.46L389.70-27.46Q395.20-33.92 404.74-33.92L404.74-33.92L404.74-33.92Q411.65-33.92 415.17-30.72L415.17-30.72L415.17-30.72Q418.69-27.52 418.69-20.80L418.69-20.80L418.69-20.80Q418.69-10.56 413.18-4.61L413.18-4.61L413.18-4.61Q407.81 1.28 398.59 1.28ZM400.26-26.56L400.26-26.56L400.26-26.56Q399.49-24.83 398.88-22.24L398.88-22.24L398.88-22.24Q398.27-19.65 397.50-15.55L397.50-15.55L397.50-15.55Q396.74-11.46 396.74-6.40L396.74-6.40L396.74-6.40Q396.74-4.74 397.28-3.65L397.28-3.65L397.28-3.65Q397.82-2.56 399.30-2.56L399.30-2.56L399.30-2.56Q400.77-2.56 401.70-3.26L401.70-3.26L401.70-3.26Q402.62-3.97 403.33-5.63L403.33-5.63L403.33-5.63Q404.61-8.58 405.63-14.05L405.63-14.05L405.63-14.05Q406.66-19.52 406.75-21.89L406.75-21.89L406.75-21.89Q406.85-24.26 406.85-26.02L406.85-26.02L406.85-26.02Q406.85-27.78 406.34-28.93L406.34-28.93L406.34-28.93Q405.82-30.08 404.38-30.08L404.38-30.08L404.38-30.08Q402.94-30.08 401.98-29.18L401.98-29.18L401.98-29.18Q401.02-28.29 400.26-26.56ZM452.29-4.38L452.29-4.38L452.29-4.38Q449.60-1.66 445.92-0.19L445.92-0.19L445.92-0.19Q442.24 1.28 438.59 1.28L438.59 1.28L438.59 1.28Q434.94 1.28 433.66 0.64L433.66 0.64L431.68 11.52L418.69 12.80L427.52-32.64L437.95-33.73L437.12-29.31L437.12-29.31Q439.81-33.86 445.38-33.86L445.38-33.86L445.38-33.86Q451.65-33.86 454.98-29.82L454.98-29.82L454.98-29.82Q457.92-26.18 457.92-20.61L457.92-20.61L457.92-20.61Q457.92-15.04 456.45-11.07L456.45-11.07L456.45-11.07Q454.98-7.10 452.29-4.38ZM437.82-22.34L434.43-3.58L434.43-3.58Q435.78-2.43 437.44-2.43L437.44-2.43L437.44-2.43Q439.10-2.43 440.06-3.07L440.06-3.07L440.06-3.07Q441.02-3.71 441.73-4.99L441.73-4.99L441.73-4.99Q443.65-8.45 445.18-18.94L445.18-18.94L445.18-18.94Q445.63-22.02 445.63-25.02L445.63-25.02L445.63-25.02Q445.63-28.03 444.96-28.99L444.96-28.99L444.96-28.99Q444.29-29.95 443.01-29.95L443.01-29.95L443.01-29.95Q439.10-29.95 437.82-22.34L437.82-22.34Z" fill="url(#editing-shiny-gradient)"></path></g></g><g filter="url(#editing-shiny2)"><g transform="translate(20.815041333436966, 104.47000122070312)"><path d="M26.11-42.69L26.11-42.69L26.11-42.69Q41.79-42.69 41.79-31.62L41.79-31.62L41.79-31.62Q41.79-25.54 37.89-21.89L37.89-21.89L37.89-21.89Q34.05-18.24 27.33-18.24L27.33-18.24L27.33-18.24Q24.19-18.24 21.76-20.03L21.76-20.03L21.76-20.03Q20.61-20.80 19.84-21.82L19.84-21.82L19.84-21.82Q24.51-21.82 26.98-24.67L26.98-24.67L26.98-24.67Q29.44-27.52 29.44-33.09L29.44-33.09L29.44-33.09Q29.44-38.66 23.94-38.66L23.94-38.66L22.40-38.66L22.40-38.66Q22.02-38.66 21.70-38.59L21.70-38.59L14.34 0L0.45 0L8.32-41.92L8.32-41.92Q15.17-42.56 19.14-42.62L19.14-42.62L19.14-42.62Q23.10-42.69 26.11-42.69ZM62.14-17.98L62.14-17.98L62.14-17.98Q64.45-22.08 64.45-26.24L64.45-26.24L64.45-26.24Q64.45-28.99 62.46-28.99L62.46-28.99L62.46-28.99Q60.93-28.99 59.33-26.37L59.33-26.37L59.33-26.37Q57.66-23.74 57.15-20.35L57.15-20.35L53.82 0L40.58 1.28L47.10-32.64L57.66-33.92L56.51-27.46L56.51-27.46Q59.65-33.92 66.69-33.92L66.69-33.92L66.69-33.92Q70.40-33.92 72.42-32L72.42-32L72.42-32Q74.43-30.08 74.43-26.14L74.43-26.14L74.43-26.14Q74.43-22.21 71.84-19.71L71.84-19.71L71.84-19.71Q69.25-17.22 64.83-17.22L64.83-17.22L64.83-17.22Q62.91-17.22 62.14-17.98ZM101.38-10.82L101.38-10.82L101.38-10.82Q102.98-9.73 102.98-7.33L102.98-7.33L102.98-7.33Q102.98-4.93 101.76-3.39L101.76-3.39L101.76-3.39Q100.54-1.86 98.56-0.83L98.56-0.83L98.56-0.83Q94.46 1.28 90.05 1.28L90.05 1.28L90.05 1.28Q85.63 1.28 83.04 0.32L83.04 0.32L83.04 0.32Q80.45-0.64 78.72-2.43L78.72-2.43L78.72-2.43Q75.33-5.82 75.33-12.03L75.33-12.03L75.33-12.03Q75.33-21.70 80.58-27.58L80.58-27.58L80.58-27.58Q86.21-33.92 96-33.92L96-33.92L96-33.92Q102.08-33.92 105.09-31.36L105.09-31.36L105.09-31.36Q107.33-29.44 107.33-26.30L107.33-26.30L107.33-26.30Q107.33-15.04 87.87-15.04L87.87-15.04L87.87-15.04Q87.62-13.38 87.62-11.97L87.62-11.97L87.62-11.97Q87.62-9.02 88.93-7.90L88.93-7.90L88.93-7.90Q90.24-6.78 92.67-6.78L92.67-6.78L92.67-6.78Q95.10-6.78 97.70-7.90L97.70-7.90L97.70-7.90Q100.29-9.02 101.38-10.82ZM88.32-17.79L88.32-17.79L88.32-17.79Q92.86-17.79 95.49-20.61L95.49-20.61L95.49-20.61Q98.11-23.30 98.11-27.58L98.11-27.58L98.11-27.58Q98.11-29.06 97.57-29.86L97.57-29.86L97.57-29.86Q97.02-30.66 95.94-30.66L95.94-30.66L95.94-30.66Q94.85-30.66 93.92-30.24L93.92-30.24L93.92-30.24Q92.99-29.82 92.03-28.42L92.03-28.42L92.03-28.42Q89.66-25.22 88.32-17.79ZM110.53-6.40L110.53-6.40L110.53-6.40Q110.53-8.13 111.42-12.48L111.42-12.48L114.82-29.76L111.04-29.76L111.30-31.68L111.30-31.68Q118.98-33.98 126.40-39.62L126.40-39.62L129.47-39.62L127.94-32.64L132.93-32.64L132.35-29.76L127.42-29.76L124.16-12.48L124.16-12.48Q123.33-8.51 123.33-7.17L123.33-7.17L123.33-7.17Q123.33-4.10 126.02-3.46L126.02-3.46L126.02-3.46Q125.38-1.28 123.07 0L123.07 0L123.07 0Q120.77 1.28 117.50 1.28L117.50 1.28L117.50 1.28Q114.24 1.28 112.38-0.77L112.38-0.77L112.38-0.77Q110.53-2.82 110.53-6.40ZM133.63-6.40L133.63-6.40L133.63-6.40Q133.63-8.13 134.53-12.48L134.53-12.48L137.92-29.76L134.14-29.76L134.40-31.68L134.40-31.68Q142.08-33.98 149.50-39.62L149.50-39.62L152.58-39.62L151.04-32.64L156.03-32.64L155.46-29.76L150.53-29.76L147.26-12.48L147.26-12.48Q146.43-8.51 146.43-7.17L146.43-7.17L146.43-7.17Q146.43-4.10 149.12-3.46L149.12-3.46L149.12-3.46Q148.48-1.28 146.18 0L146.18 0L146.18 0Q143.87 1.28 140.61 1.28L140.61 1.28L140.61 1.28Q137.34 1.28 135.49-0.77L135.49-0.77L135.49-0.77Q133.63-2.82 133.63-6.40ZM176.06-7.23L176.06-7.23L176.06-7.23Q172.74-3.78 166.66-3.78L166.66-3.78L166.66-3.78Q159.04-3.78 157.44-9.34L157.44-9.34L157.44-9.34Q156.93-11.01 156.93-12.86L156.93-12.86L156.93-12.86Q156.93-14.72 157.31-16.64L157.31-16.64L160.32-32.64L173.31-33.92L169.79-15.30L169.79-15.30Q169.66-14.46 169.47-13.57L169.47-13.57L169.47-13.57Q169.28-12.67 169.28-11.74L169.28-11.74L169.28-11.74Q169.28-10.82 169.60-10.21L169.60-10.21L169.60-10.21Q169.92-9.60 170.37-9.22L170.37-9.22L170.37-9.22Q171.14-8.70 172.51-8.70L172.51-8.70L172.51-8.70Q173.89-8.70 175.07-10.37L175.07-10.37L175.07-10.37Q176.26-12.03 176.83-14.91L176.83-14.91L180.35-32.64L192.96-33.92L188.16-8.77L188.16-8.77Q185.79 3.52 180.93 8.38L180.93 8.38L180.93 8.38Q178.43 10.88 175.20 11.87L175.20 11.87L175.20 11.87Q171.97 12.86 167.81 12.86L167.81 12.86L167.81 12.86Q161.09 12.86 157.25 10.75L157.25 10.75L157.25 10.75Q153.41 8.64 153.41 5.12L153.41 5.12L153.41 5.12Q153.41 2.50 155.39 0.99L155.39 0.99L155.39 0.99Q157.38-0.51 160.45-0.51L160.45-0.51L160.45-0.51Q163.14-0.51 165.18 0.64L165.18 0.64L165.18 0.64Q166.40 1.34 166.98 2.24L166.98 2.24L166.98 2.24Q165.50 3.52 165.50 5.63L165.50 5.63L165.50 5.63Q165.50 8.45 168.06 8.45L168.06 8.45L168.06 8.45Q172.29 8.45 174.72-1.28L174.72-1.28L174.72-1.28Q175.42-4.16 176.06-7.23ZM233.47-42.69L233.47-42.69L233.47-42.69Q249.15-42.69 249.15-31.62L249.15-31.62L249.15-31.62Q249.15-25.54 245.25-21.89L245.25-21.89L245.25-21.89Q241.41-18.24 234.69-18.24L234.69-18.24L234.69-18.24Q231.55-18.24 229.12-20.03L229.12-20.03L229.12-20.03Q227.97-20.80 227.20-21.82L227.20-21.82L227.20-21.82Q231.87-21.82 234.34-24.67L234.34-24.67L234.34-24.67Q236.80-27.52 236.80-33.09L236.80-33.09L236.80-33.09Q236.80-38.66 231.30-38.66L231.30-38.66L229.76-38.66L229.76-38.66Q229.38-38.66 229.06-38.59L229.06-38.59L221.70 0L207.81 0L215.68-41.92L215.68-41.92Q222.53-42.56 226.50-42.62L226.50-42.62L226.50-42.62Q230.46-42.69 233.47-42.69ZM275.39-10.82L275.39-10.82L275.39-10.82Q276.99-9.73 276.99-7.33L276.99-7.33L276.99-7.33Q276.99-4.93 275.78-3.39L275.78-3.39L275.78-3.39Q274.56-1.86 272.58-0.83L272.58-0.83L272.58-0.83Q268.48 1.28 264.06 1.28L264.06 1.28L264.06 1.28Q259.65 1.28 257.06 0.32L257.06 0.32L257.06 0.32Q254.46-0.64 252.74-2.43L252.74-2.43L252.74-2.43Q249.34-5.82 249.34-12.03L249.34-12.03L249.34-12.03Q249.34-21.70 254.59-27.58L254.59-27.58L254.59-27.58Q260.22-33.92 270.02-33.92L270.02-33.92L270.02-33.92Q276.10-33.92 279.10-31.36L279.10-31.36L279.10-31.36Q281.34-29.44 281.34-26.30L281.34-26.30L281.34-26.30Q281.34-15.04 261.89-15.04L261.89-15.04L261.89-15.04Q261.63-13.38 261.63-11.97L261.63-11.97L261.63-11.97Q261.63-9.02 262.94-7.90L262.94-7.90L262.94-7.90Q264.26-6.78 266.69-6.78L266.69-6.78L266.69-6.78Q269.12-6.78 271.71-7.90L271.71-7.90L271.71-7.90Q274.30-9.02 275.39-10.82ZM262.34-17.79L262.34-17.79L262.34-17.79Q266.88-17.79 269.50-20.61L269.50-20.61L269.50-20.61Q272.13-23.30 272.13-27.58L272.13-27.58L272.13-27.58Q272.13-29.06 271.58-29.86L271.58-29.86L271.58-29.86Q271.04-30.66 269.95-30.66L269.95-30.66L269.95-30.66Q268.86-30.66 267.94-30.24L267.94-30.24L267.94-30.24Q267.01-29.82 266.05-28.42L266.05-28.42L266.05-28.42Q263.68-25.22 262.34-17.79ZM284.54-6.40L284.54-6.40L284.54-6.40Q284.54-8.13 285.44-12.48L285.44-12.48L288.83-29.76L285.06-29.76L285.31-31.68L285.31-31.68Q292.99-33.98 300.42-39.62L300.42-39.62L303.49-39.62L301.95-32.64L306.94-32.64L306.37-29.76L301.44-29.76L298.18-12.48L298.18-12.48Q297.34-8.51 297.34-7.17L297.34-7.17L297.34-7.17Q297.34-4.10 300.03-3.46L300.03-3.46L300.03-3.46Q299.39-1.28 297.09 0L297.09 0L297.09 0Q294.78 1.28 291.52 1.28L291.52 1.28L291.52 1.28Q288.26 1.28 286.40-0.77L286.40-0.77L286.40-0.77Q284.54-2.82 284.54-6.40ZM331.58-29.57L331.58-29.57L331.58-29.57Q332.54-31.49 332.54-33.28L332.54-33.28L332.54-33.28Q332.54-35.07 332.35-36.06L332.35-36.06L332.35-36.06Q332.16-37.06 331.71-37.82L331.71-37.82L331.71-37.82Q330.75-39.49 328.83-39.49L328.83-39.49L328.83-39.49Q326.46-39.49 324.54-37.76L324.54-37.76L324.54-37.76Q322.50-35.97 322.50-33.15L322.50-33.15L322.50-33.15Q322.50-31.36 323.74-29.98L323.74-29.98L323.74-29.98Q324.99-28.61 326.91-27.33L326.91-27.33L326.91-27.33Q328.83-26.05 331.01-24.77L331.01-24.77L331.01-24.77Q333.18-23.49 335.10-21.95L335.10-21.95L335.10-21.95Q339.52-18.43 339.52-13.70L339.52-13.70L339.52-13.70Q339.52-10.50 337.82-7.78L337.82-7.78L337.82-7.78Q336.13-5.06 333.31-3.07L333.31-3.07L333.31-3.07Q327.17 1.28 319.04 1.28L319.04 1.28L319.04 1.28Q312.45 1.28 309.06-0.86L309.06-0.86L309.06-0.86Q305.66-3.01 305.66-6.27L305.66-6.27L305.66-6.27Q305.66-12.10 310.21-13.57L310.21-13.57L310.21-13.57Q311.49-14.02 313.44-14.02L313.44-14.02L313.44-14.02Q315.39-14.02 317.63-13.18L317.63-13.18L317.63-13.18Q316.61-10.56 316.61-8.19L316.61-8.19L316.61-8.19Q316.61-3.07 320.26-3.07L320.26-3.07L320.26-3.07Q322.62-3.07 324.58-4.80L324.58-4.80L324.58-4.80Q326.53-6.53 326.53-8.48L326.53-8.48L326.53-8.48Q326.53-10.43 325.28-11.84L325.28-11.84L325.28-11.84Q324.03-13.25 322.18-14.37L322.18-14.37L322.18-14.37Q320.32-15.49 318.18-16.58L318.18-16.58L318.18-16.58Q316.03-17.66 314.18-19.20L314.18-19.20L314.18-19.20Q309.82-22.72 309.82-28.35L309.82-28.35L309.82-28.35Q309.82-32 311.62-34.85L311.62-34.85L311.62-34.85Q313.41-37.70 316.29-39.62L316.29-39.62L316.29-39.62Q322.05-43.52 329.12-43.52L329.12-43.52L329.12-43.52Q336.19-43.52 339.62-41.41L339.62-41.41L339.62-41.41Q343.04-39.30 343.04-35.71L343.04-35.71L343.04-35.71Q343.04-32.58 340.61-30.59L340.61-30.59L340.61-30.59Q338.50-28.93 335.94-28.93L335.94-28.93L335.94-28.93Q333.38-28.93 331.58-29.57ZM376.58-7.10L376.58-7.10L376.58-7.10Q376.58-4.29 379.46-3.46L379.46-3.46L379.46-3.46Q378.75-1.09 376.00 0.19L376.00 0.19L376.00 0.19Q373.70 1.28 371.17 1.28L371.17 1.28L371.17 1.28Q368.64 1.28 367.33 0.61L367.33 0.61L367.33 0.61Q366.02-0.06 365.31-1.15L365.31-1.15L365.31-1.15Q364.16-2.82 364.16-5.95L364.16-5.95L364.16-5.95Q364.16-7.81 365.18-12.93L365.18-12.93L366.08-17.79L366.08-17.79Q367.17-23.36 367.17-25.41L367.17-25.41L367.17-25.41Q367.17-28.99 365.18-28.99L365.18-28.99L365.18-28.99Q362.69-28.99 361.09-25.34L361.09-25.34L361.09-25.34Q360.45-23.94 360.00-21.82L360.00-21.82L355.65 0L342.78 1.28L351.81-44.80L364.67-46.08L364.16-43.52L364.16-43.52Q362.37-33.66 360.83-30.34L360.83-30.34L360.83-30.34Q364.42-33.92 371.01-33.92L371.01-33.92L371.01-33.92Q377.98-33.92 379.26-29.31L379.26-29.31L379.26-29.31Q379.71-27.84 379.71-26.56L379.71-26.56L379.71-26.56Q379.71-25.28 379.62-24.29L379.62-24.29L379.62-24.29Q379.52-23.30 379.20-21.50L379.20-21.50L378.37-16.90L376.90-9.66L376.90-9.66Q376.58-8.19 376.58-7.10ZM398.59 1.28L398.59 1.28L398.59 1.28Q384.51 1.28 384.51-11.97L384.51-11.97L384.51-11.97Q384.51-21.38 389.70-27.46L389.70-27.46L389.70-27.46Q395.20-33.92 404.74-33.92L404.74-33.92L404.74-33.92Q411.65-33.92 415.17-30.72L415.17-30.72L415.17-30.72Q418.69-27.52 418.69-20.80L418.69-20.80L418.69-20.80Q418.69-10.56 413.18-4.61L413.18-4.61L413.18-4.61Q407.81 1.28 398.59 1.28ZM400.26-26.56L400.26-26.56L400.26-26.56Q399.49-24.83 398.88-22.24L398.88-22.24L398.88-22.24Q398.27-19.65 397.50-15.55L397.50-15.55L397.50-15.55Q396.74-11.46 396.74-6.40L396.74-6.40L396.74-6.40Q396.74-4.74 397.28-3.65L397.28-3.65L397.28-3.65Q397.82-2.56 399.30-2.56L399.30-2.56L399.30-2.56Q400.77-2.56 401.70-3.26L401.70-3.26L401.70-3.26Q402.62-3.97 403.33-5.63L403.33-5.63L403.33-5.63Q404.61-8.58 405.63-14.05L405.63-14.05L405.63-14.05Q406.66-19.52 406.75-21.89L406.75-21.89L406.75-21.89Q406.85-24.26 406.85-26.02L406.85-26.02L406.85-26.02Q406.85-27.78 406.34-28.93L406.34-28.93L406.34-28.93Q405.82-30.08 404.38-30.08L404.38-30.08L404.38-30.08Q402.94-30.08 401.98-29.18L401.98-29.18L401.98-29.18Q401.02-28.29 400.26-26.56ZM452.29-4.38L452.29-4.38L452.29-4.38Q449.60-1.66 445.92-0.19L445.92-0.19L445.92-0.19Q442.24 1.28 438.59 1.28L438.59 1.28L438.59 1.28Q434.94 1.28 433.66 0.64L433.66 0.64L431.68 11.52L418.69 12.80L427.52-32.64L437.95-33.73L437.12-29.31L437.12-29.31Q439.81-33.86 445.38-33.86L445.38-33.86L445.38-33.86Q451.65-33.86 454.98-29.82L454.98-29.82L454.98-29.82Q457.92-26.18 457.92-20.61L457.92-20.61L457.92-20.61Q457.92-15.04 456.45-11.07L456.45-11.07L456.45-11.07Q454.98-7.10 452.29-4.38ZM437.82-22.34L434.43-3.58L434.43-3.58Q435.78-2.43 437.44-2.43L437.44-2.43L437.44-2.43Q439.10-2.43 440.06-3.07L440.06-3.07L440.06-3.07Q441.02-3.71 441.73-4.99L441.73-4.99L441.73-4.99Q443.65-8.45 445.18-18.94L445.18-18.94L445.18-18.94Q445.63-22.02 445.63-25.02L445.63-25.02L445.63-25.02Q445.63-28.03 444.96-28.99L444.96-28.99L444.96-28.99Q444.29-29.95 443.01-29.95L443.01-29.95L443.01-29.95Q439.10-29.95 437.82-22.34L437.82-22.34Z" fill="url(#editing-shiny-gradient2)"></path></g></g><style>text {
  font-size: 64px;
  font-family: Arial Black;
  dominant-baseline: central;
  text-anchor: middle;
}</style></svg>