<svg width="438.88975830078124px" height="122px" xmlns="http://www.w3.org/2000/svg" viewBox="30.55512084960938 14 438.88975830078124 122" style="background: rgba(0, 0, 0, 0);" preserveAspectRatio="xMidYMid"><defs><filter id="editing-hole" x="-100%" y="-100%" width="300%" height="300%"><feFlood flood-color="#000" result="black"></feFlood><feMorphology operator="dilate" radius="2" in="SourceGraphic" result="erode"></feMorphology><feGaussianBlur in="erode" stdDeviation="4" result="blur"></feGaussianBlur><feOffset in="blur" dx="2" dy="2" result="offset"></feOffset><feComposite operator="atop" in="offset" in2="black" result="merge"></feComposite><feComposite operator="in" in="merge" in2="SourceGraphic" result="inner-shadow"></feComposite></filter></defs><g filter="url(#editing-hole)"><g transform="translate(97.54433897137642, 102.77499961853027)"><path d="M26.11-42.69L26.11-42.69L26.11-42.69Q41.79-42.69 41.79-31.62L41.79-31.62L41.79-31.62Q41.79-25.54 37.89-21.89L37.89-21.89L37.89-21.89Q34.05-18.24 27.33-18.24L27.33-18.24L27.33-18.24Q24.19-18.24 21.76-20.03L21.76-20.03L21.76-20.03Q20.61-20.80 19.84-21.82L19.84-21.82L19.84-21.82Q24.51-21.82 26.98-24.67L26.98-24.67L26.98-24.67Q29.44-27.52 29.44-33.09L29.44-33.09L29.44-33.09Q29.44-38.66 23.94-38.66L23.94-38.66L22.40-38.66L22.40-38.66Q22.02-38.66 21.70-38.59L21.70-38.59L14.34 0L0.45 0L8.32-41.92L8.32-41.92Q15.17-42.56 19.14-42.62L19.14-42.62L19.14-42.62Q23.10-42.69 26.11-42.69ZM62.14-17.98L62.14-17.98L62.14-17.98Q64.45-22.08 64.45-26.24L64.45-26.24L64.45-26.24Q64.45-28.99 62.46-28.99L62.46-28.99L62.46-28.99Q60.93-28.99 59.33-26.37L59.33-26.37L59.33-26.37Q57.66-23.74 57.15-20.35L57.15-20.35L53.82 0L40.58 1.28L47.10-32.64L57.66-33.92L56.51-27.46L56.51-27.46Q59.65-33.92 66.69-33.92L66.69-33.92L66.69-33.92Q70.40-33.92 72.42-32L72.42-32L72.42-32Q74.43-30.08 74.43-26.14L74.43-26.14L74.43-26.14Q74.43-22.21 71.84-19.71L71.84-19.71L71.84-19.71Q69.25-17.22 64.83-17.22L64.83-17.22L64.83-17.22Q62.91-17.22 62.14-17.98ZM101.38-10.82L101.38-10.82L101.38-10.82Q102.98-9.73 102.98-7.33L102.98-7.33L102.98-7.33Q102.98-4.93 101.76-3.39L101.76-3.39L101.76-3.39Q100.54-1.86 98.56-0.83L98.56-0.83L98.56-0.83Q94.46 1.28 90.05 1.28L90.05 1.28L90.05 1.28Q85.63 1.28 83.04 0.32L83.04 0.32L83.04 0.32Q80.45-0.64 78.72-2.43L78.72-2.43L78.72-2.43Q75.33-5.82 75.33-12.03L75.33-12.03L75.33-12.03Q75.33-21.70 80.58-27.58L80.58-27.58L80.58-27.58Q86.21-33.92 96-33.92L96-33.92L96-33.92Q102.08-33.92 105.09-31.36L105.09-31.36L105.09-31.36Q107.33-29.44 107.33-26.30L107.33-26.30L107.33-26.30Q107.33-15.04 87.87-15.04L87.87-15.04L87.87-15.04Q87.62-13.38 87.62-11.97L87.62-11.97L87.62-11.97Q87.62-9.02 88.93-7.90L88.93-7.90L88.93-7.90Q90.24-6.78 92.67-6.78L92.67-6.78L92.67-6.78Q95.10-6.78 97.70-7.90L97.70-7.90L97.70-7.90Q100.29-9.02 101.38-10.82ZM88.32-17.79L88.32-17.79L88.32-17.79Q92.86-17.79 95.49-20.61L95.49-20.61L95.49-20.61Q98.11-23.30 98.11-27.58L98.11-27.58L98.11-27.58Q98.11-29.06 97.57-29.86L97.57-29.86L97.57-29.86Q97.02-30.66 95.94-30.66L95.94-30.66L95.94-30.66Q94.85-30.66 93.92-30.24L93.92-30.24L93.92-30.24Q92.99-29.82 92.03-28.42L92.03-28.42L92.03-28.42Q89.66-25.22 88.32-17.79ZM110.53-6.40L110.53-6.40L110.53-6.40Q110.53-8.13 111.42-12.48L111.42-12.48L114.82-29.76L111.04-29.76L111.30-31.68L111.30-31.68Q118.98-33.98 126.40-39.62L126.40-39.62L129.47-39.62L127.94-32.64L132.93-32.64L132.35-29.76L127.42-29.76L124.16-12.48L124.16-12.48Q123.33-8.51 123.33-7.17L123.33-7.17L123.33-7.17Q123.33-4.10 126.02-3.46L126.02-3.46L126.02-3.46Q125.38-1.28 123.07 0L123.07 0L123.07 0Q120.77 1.28 117.50 1.28L117.50 1.28L117.50 1.28Q114.24 1.28 112.38-0.77L112.38-0.77L112.38-0.77Q110.53-2.82 110.53-6.40ZM133.63-6.40L133.63-6.40L133.63-6.40Q133.63-8.13 134.53-12.48L134.53-12.48L137.92-29.76L134.14-29.76L134.40-31.68L134.40-31.68Q142.08-33.98 149.50-39.62L149.50-39.62L152.58-39.62L151.04-32.64L156.03-32.64L155.46-29.76L150.53-29.76L147.26-12.48L147.26-12.48Q146.43-8.51 146.43-7.17L146.43-7.17L146.43-7.17Q146.43-4.10 149.12-3.46L149.12-3.46L149.12-3.46Q148.48-1.28 146.18 0L146.18 0L146.18 0Q143.87 1.28 140.61 1.28L140.61 1.28L140.61 1.28Q137.34 1.28 135.49-0.77L135.49-0.77L135.49-0.77Q133.63-2.82 133.63-6.40ZM176.06-7.23L176.06-7.23L176.06-7.23Q172.74-3.78 166.66-3.78L166.66-3.78L166.66-3.78Q159.04-3.78 157.44-9.34L157.44-9.34L157.44-9.34Q156.93-11.01 156.93-12.86L156.93-12.86L156.93-12.86Q156.93-14.72 157.31-16.64L157.31-16.64L160.32-32.64L173.31-33.92L169.79-15.30L169.79-15.30Q169.66-14.46 169.47-13.57L169.47-13.57L169.47-13.57Q169.28-12.67 169.28-11.74L169.28-11.74L169.28-11.74Q169.28-10.82 169.60-10.21L169.60-10.21L169.60-10.21Q169.92-9.60 170.37-9.22L170.37-9.22L170.37-9.22Q171.14-8.70 172.51-8.70L172.51-8.70L172.51-8.70Q173.89-8.70 175.07-10.37L175.07-10.37L175.07-10.37Q176.26-12.03 176.83-14.91L176.83-14.91L180.35-32.64L192.96-33.92L188.16-8.77L188.16-8.77Q185.79 3.52 180.93 8.38L180.93 8.38L180.93 8.38Q178.43 10.88 175.20 11.87L175.20 11.87L175.20 11.87Q171.97 12.86 167.81 12.86L167.81 12.86L167.81 12.86Q161.09 12.86 157.25 10.75L157.25 10.75L157.25 10.75Q153.41 8.64 153.41 5.12L153.41 5.12L153.41 5.12Q153.41 2.50 155.39 0.99L155.39 0.99L155.39 0.99Q157.38-0.51 160.45-0.51L160.45-0.51L160.45-0.51Q163.14-0.51 165.18 0.64L165.18 0.64L165.18 0.64Q166.40 1.34 166.98 2.24L166.98 2.24L166.98 2.24Q165.50 3.52 165.50 5.63L165.50 5.63L165.50 5.63Q165.50 8.45 168.06 8.45L168.06 8.45L168.06 8.45Q172.29 8.45 174.72-1.28L174.72-1.28L174.72-1.28Q175.42-4.16 176.06-7.23ZM233.47-42.69L233.47-42.69L233.47-42.69Q249.15-42.69 249.15-31.62L249.15-31.62L249.15-31.62Q249.15-25.54 245.25-21.89L245.25-21.89L245.25-21.89Q241.41-18.24 234.69-18.24L234.69-18.24L234.69-18.24Q231.55-18.24 229.12-20.03L229.12-20.03L229.12-20.03Q227.97-20.80 227.20-21.82L227.20-21.82L227.20-21.82Q231.87-21.82 234.34-24.67L234.34-24.67L234.34-24.67Q236.80-27.52 236.80-33.09L236.80-33.09L236.80-33.09Q236.80-38.66 231.30-38.66L231.30-38.66L229.76-38.66L229.76-38.66Q229.38-38.66 229.06-38.59L229.06-38.59L221.70 0L207.81 0L215.68-41.92L215.68-41.92Q222.53-42.56 226.50-42.62L226.50-42.62L226.50-42.62Q230.46-42.69 233.47-42.69ZM275.39-10.82L275.39-10.82L275.39-10.82Q276.99-9.73 276.99-7.33L276.99-7.33L276.99-7.33Q276.99-4.93 275.78-3.39L275.78-3.39L275.78-3.39Q274.56-1.86 272.58-0.83L272.58-0.83L272.58-0.83Q268.48 1.28 264.06 1.28L264.06 1.28L264.06 1.28Q259.65 1.28 257.06 0.32L257.06 0.32L257.06 0.32Q254.46-0.64 252.74-2.43L252.74-2.43L252.74-2.43Q249.34-5.82 249.34-12.03L249.34-12.03L249.34-12.03Q249.34-21.70 254.59-27.58L254.59-27.58L254.59-27.58Q260.22-33.92 270.02-33.92L270.02-33.92L270.02-33.92Q276.10-33.92 279.10-31.36L279.10-31.36L279.10-31.36Q281.34-29.44 281.34-26.30L281.34-26.30L281.34-26.30Q281.34-15.04 261.89-15.04L261.89-15.04L261.89-15.04Q261.63-13.38 261.63-11.97L261.63-11.97L261.63-11.97Q261.63-9.02 262.94-7.90L262.94-7.90L262.94-7.90Q264.26-6.78 266.69-6.78L266.69-6.78L266.69-6.78Q269.12-6.78 271.71-7.90L271.71-7.90L271.71-7.90Q274.30-9.02 275.39-10.82ZM262.34-17.79L262.34-17.79L262.34-17.79Q266.88-17.79 269.50-20.61L269.50-20.61L269.50-20.61Q272.13-23.30 272.13-27.58L272.13-27.58L272.13-27.58Q272.13-29.06 271.58-29.86L271.58-29.86L271.58-29.86Q271.04-30.66 269.95-30.66L269.95-30.66L269.95-30.66Q268.86-30.66 267.94-30.24L267.94-30.24L267.94-30.24Q267.01-29.82 266.05-28.42L266.05-28.42L266.05-28.42Q263.68-25.22 262.34-17.79ZM284.54-6.40L284.54-6.40L284.54-6.40Q284.54-8.13 285.44-12.48L285.44-12.48L288.83-29.76L285.06-29.76L285.31-31.68L285.31-31.68Q292.99-33.98 300.42-39.62L300.42-39.62L303.49-39.62L301.95-32.64L306.94-32.64L306.37-29.76L301.44-29.76L298.18-12.48L298.18-12.48Q297.34-8.51 297.34-7.17L297.34-7.17L297.34-7.17Q297.34-4.10 300.03-3.46L300.03-3.46L300.03-3.46Q299.39-1.28 297.09 0L297.09 0L297.09 0Q294.78 1.28 291.52 1.28L291.52 1.28L291.52 1.28Q288.26 1.28 286.40-0.77L286.40-0.77L286.40-0.77Q284.54-2.82 284.54-6.40Z" fill="#ccc"></path></g></g><style>text {
  font-size: 64px;
  font-family: Arial Black;
  dominant-baseline: central;
  text-anchor: middle;
}</style></svg>