<?xml version="1.0" standalone="no"?>
<!DOCTYPE svg PUBLIC "-//W3C//DTD SVG 20010904//EN"
 "http://www.w3.org/TR/2001/REC-SVG-20010904/DTD/svg10.dtd">
<svg version="1.0" xmlns="http://www.w3.org/2000/svg"
 width="913.000000pt" height="1280.000000pt" viewBox="0 0 913.000000 1280.000000"
 preserveAspectRatio="xMidYMid meet">
<metadata>
Created by potrace 1.15, written by Peter Selinger 2001-2017
</metadata>
<g transform="translate(0.000000,1280.000000) scale(0.100000,-0.100000)"
fill="#000000" stroke="none">
<path d="M0 6400 l0 -6400 118 1 c86 0 546 51 1742 192 l1625 192 3 2133 2
2132 423 0 c434 0 665 9 962 36 1286 117 2282 482 3010 1103 583 499 971 1171
1138 1976 77 366 102 633 101 1075 0 359 -10 499 -55 780 -166 1044 -716 1871
-1594 2397 -643 385 -1455 624 -2470 728 -481 49 -453 48 -2797 52 l-2208 4 0
-6401z m4415 3469 c341 -42 599 -145 828 -329 182 -146 291 -323 337 -550 31
-148 25 -388 -14 -534 -124 -473 -544 -788 -1191 -892 -75 -12 -199 -18 -492
-21 l-393 -5 0 1156 0 1156 43 1 c23 0 150 9 282 19 245 19 440 19 600 -1z"/>
</g>
</svg>
